<svg width="41" height="40" viewBox="0 0 41 40" fill="none" xmlns="http://www.w3.org/2000/svg">
    <path fill-rule="evenodd" clip-rule="evenodd" d="M7.16669 20C7.16669 12.648 13.148 6.66666 20.5 6.66666C27.852 6.66666 33.8334 12.648 33.8334 20C33.8334 27.352 27.852 33.3333 20.5 33.3333C13.148 33.3333 7.16669 27.352 7.16669 20ZM9.83335 20C9.83335 25.8813 14.6187 30.6667 20.5 30.6667C26.3814 30.6667 31.1667 25.8813 31.1667 20C31.1667 14.1187 26.3814 9.33332 20.5 9.33332C14.6187 9.33332 9.83335 14.1187 9.83335 20ZM14.7667 19.056L17.832 22.116L24.8907 15.0574L26.776 16.9427L17.8347 25.884L12.884 20.944L14.7667 19.056Z" fill="white"/>
</svg>
