<svg width="24" height="24" viewBox="0 0 24 24" fill="none" xmlns="http://www.w3.org/2000/svg">
    <path fill-rule="evenodd" clip-rule="evenodd" d="M2 12C2 6.486 6.486 2 12 2C17.514 2 22 6.486 22 12C22 17.514 17.514 22 12 22C6.486 22 2 17.514 2 12ZM4 12C4 16.411 7.589 20 12 20C16.411 20 20 16.411 20 12C20 7.589 16.411 4 12 4C7.589 4 4 7.589 4 12ZM8.06604 9.934C8.06604 7.765 9.83104 6 12 6C14.169 6 15.934 7.765 15.933 9.934C15.933 11.53 14.757 12.4826 13.978 13.1136L13.975 13.116C13.9613 13.1271 13.9476 13.1381 13.934 13.1491C13.7528 13.295 13.5795 13.4345 13.44 13.574C13.032 13.981 13 14.351 12.999 14.367L13 15H11V14.333C11 14.215 11.029 13.156 12.027 12.159C12.222 11.964 12.463 11.767 12.718 11.56C13.453 10.966 13.934 10.532 13.934 9.934C13.934 8.867 13.066 8 12 8C10.934 8 10.066 8.867 10.066 9.934H8.06604ZM13 18V16H11V18H13Z" fill="#202020"/>
</svg>
